# Blender v2.79 (sub 0) OBJ File: ''
# www.blender.org
mtllib left arch.mtl
o left_arch_Cube.004
v -1.898817 0.000000 0.500000
v -1.898817 2.000000 0.500000
v -1.898817 0.000000 -0.500000
v -1.898817 2.000000 -0.500000
v 1.898817 0.000000 0.500000
v 1.898817 2.000000 0.500000
v 1.898817 0.000000 -0.500000
v 1.898817 2.000000 -0.500000
v -0.633333 0.000000 -0.500000
v -1.566667 0.000000 -0.500000
v -1.566667 2.000000 -0.500000
v -0.633333 2.000000 -0.500000
v -1.566667 0.000000 0.500000
v -0.633333 0.000000 0.500000
v -0.633333 2.000000 0.500000
v -1.566667 2.000000 0.500000
v -1.898817 1.000000 0.500000
v -1.898817 1.000000 -0.500000
v 1.898817 1.000000 -0.500000
v 1.898817 1.000000 0.500000
v -0.633333 1.000000 0.500000
v -1.566667 1.000000 0.500000
v -1.566667 1.000000 -0.500000
v -0.633333 1.000000 -0.500000
vn -1.0000 0.0000 0.0000
vn 0.0000 0.0000 -1.0000
vn 1.0000 0.0000 0.0000
vn 0.0000 0.0000 1.0000
vn 0.0000 -1.0000 0.0000
vn 0.0000 1.0000 0.0000
usemtl None
s off
f 17//1 2//1 4//1 18//1
f 24//2 12//2 8//2 19//2
f 19//3 8//3 6//3 20//3
f 22//4 16//4 2//4 17//4
f 9//5 7//5 5//5 14//5
f 11//6 4//6 2//6 16//6
f 8//6 12//6 15//6 6//6
f 12//6 11//6 16//6 15//6
f 3//5 10//5 13//5 1//5
f 23//5 24//5 21//5 22//5
f 20//4 6//4 15//4 21//4
f 21//4 15//4 16//4 22//4
f 18//2 4//2 11//2 23//2
f 23//2 11//2 12//2 24//2
f 22//3 13//3 10//3 23//3
f 3//2 18//2 23//2 10//2
f 21//1 24//1 9//1 14//1
f 5//4 20//4 21//4 14//4
f 13//4 22//4 17//4 1//4
f 7//3 19//3 20//3 5//3
f 9//2 24//2 19//2 7//2
f 1//1 17//1 18//1 3//1
